<svg version="1.1" id="Layer_1" xmlns="http://www.w3.org/2000/svg" xmlns:xlink="http://www.w3.org/1999/xlink" x="0px" y="0px"
	 width="100%" viewBox="0 0 500 500" enable-background="new 0 0 500 500" xml:space="preserve">
<path fill="#010101" opacity="0.000000" stroke="none" 
	d="
M268.000000,501.000000 
	C178.666687,501.000000 89.833374,501.000000 1.000048,501.000000 
	C1.000032,334.333405 1.000032,167.666794 1.000016,1.000137 
	C167.666565,1.000091 334.333130,1.000091 500.999756,1.000046 
	C500.999847,167.666519 500.999847,334.333038 500.999939,500.999786 
	C423.500000,501.000000 346.000000,501.000000 268.000000,501.000000 
M403.498688,33.316292 
	C374.177490,33.302387 344.855133,33.418209 315.536194,33.152836 
	C310.368256,33.106060 309.158600,34.657818 309.167816,39.635983 
	C309.295715,108.777870 309.264252,177.920258 309.083527,247.062042 
	C309.071533,251.651260 310.511963,254.793289 313.672699,257.940002 
	C348.004242,292.119354 382.219513,326.415436 416.472443,360.673737 
	C419.308197,363.509949 422.187683,366.302460 425.460754,369.522430 
	C425.460754,256.913544 425.460754,145.272171 425.460754,33.317181 
	C418.120270,33.317181 411.309479,33.317181 403.498688,33.316292 
M102.035683,102.463890 
	C79.441467,79.969627 56.847252,57.475361 33.877972,34.607693 
	C33.710693,36.010044 33.500751,36.948750 33.500767,37.887455 
	C33.501740,90.208763 33.480190,142.530212 33.669361,194.850906 
	C33.677765,197.176834 35.082844,200.018341 36.749294,201.733826 
	C48.240597,213.563187 59.969887,225.161484 71.631149,236.825592 
	C147.724396,312.937286 223.835846,389.030792 299.851562,465.219818 
	C302.674133,468.048859 305.420105,469.263367 309.414642,469.254517 
	C360.568726,469.140991 411.723175,469.191986 462.877533,469.185059 
	C464.411499,469.184875 465.945465,469.008820 468.612793,468.845276 
	C442.255035,442.580322 416.805542,417.248505 391.387543,391.885101 
	C356.319611,356.892456 321.256927,321.894501 286.226074,286.864746 
	C248.483765,249.123672 210.776184,211.347855 173.062332,173.578323 
	C149.556091,150.037384 126.066307,126.480019 102.035683,102.463890 
M46.507954,469.150024 
	C80.899796,469.150024 115.291634,469.150024 149.930359,469.150024 
	C149.930359,438.071716 149.847351,407.767426 150.022461,377.464661 
	C150.047882,373.065857 148.559052,370.040527 145.526505,367.025146 
	C115.433701,337.102905 85.453293,307.067627 55.448982,277.056458 
	C48.448891,270.054749 41.478676,263.023193 33.817501,255.324905 
	C33.817501,327.155945 33.817501,397.857819 33.817501,469.149017 
	C37.948784,469.149017 41.730694,469.149017 46.507954,469.150024 
z"/>
<path fill="#FDFDFD" opacity="1.000000" stroke="none" 
	d="
M403.998718,33.316734 
	C411.309479,33.317181 418.120270,33.317181 425.460754,33.317181 
	C425.460754,145.272171 425.460754,256.913544 425.460754,369.522430 
	C422.187683,366.302460 419.308197,363.509949 416.472443,360.673737 
	C382.219513,326.415436 348.004242,292.119354 313.672699,257.940002 
	C310.511963,254.793289 309.071533,251.651260 309.083527,247.062042 
	C309.264252,177.920258 309.295715,108.777870 309.167816,39.635983 
	C309.158600,34.657818 310.368256,33.106060 315.536194,33.152836 
	C344.855133,33.418209 374.177490,33.302387 403.998718,33.316734 
z"/>
<path fill="#FAFAFA" opacity="1.000000" stroke="none" 
	d="
M102.302414,102.696953 
	C126.066307,126.480019 149.556091,150.037384 173.062332,173.578323 
	C210.776184,211.347855 248.483765,249.123672 286.226074,286.864746 
	C321.256927,321.894501 356.319611,356.892456 391.387543,391.885101 
	C416.805542,417.248505 442.255035,442.580322 468.612793,468.845276 
	C465.945465,469.008820 464.411499,469.184875 462.877533,469.185059 
	C411.723175,469.191986 360.568726,469.140991 309.414642,469.254517 
	C305.420105,469.263367 302.674133,468.048859 299.851562,465.219818 
	C223.835846,389.030792 147.724396,312.937286 71.631149,236.825592 
	C59.969887,225.161484 48.240597,213.563187 36.749294,201.733826 
	C35.082844,200.018341 33.677765,197.176834 33.669361,194.850906 
	C33.480190,142.530212 33.501740,90.208763 33.500767,37.887455 
	C33.500751,36.948750 33.710693,36.010044 33.877972,34.607693 
	C56.847252,57.475361 79.441467,79.969627 102.302414,102.696953 
M185.080002,312.419403 
	C197.649536,325.027649 210.216537,337.638458 222.789108,350.243683 
	C252.041916,379.572510 281.330719,408.865601 310.502167,438.275146 
	C313.546448,441.344299 316.717377,442.520569 321.022583,442.487823 
	C346.517334,442.293854 372.014069,442.366974 397.510101,442.329163 
	C399.076843,442.326843 400.643280,442.144440 401.227875,442.107635 
	C287.510254,328.520966 173.623901,214.765747 60.127163,101.399681 
	C60.179134,100.929909 60.048916,101.557396 60.049038,102.184853 
	C60.054470,129.513275 60.022854,156.842010 60.193935,184.169464 
	C60.205612,186.035172 61.300018,188.336258 62.642979,189.687225 
	C103.216980,230.502975 143.885635,271.224640 185.080002,312.419403 
z"/>
<path fill="#FEFEFE" opacity="1.000000" stroke="none" 
	d="
M46.010277,469.149536 
	C41.730694,469.149017 37.948784,469.149017 33.817501,469.149017 
	C33.817501,397.857819 33.817501,327.155945 33.817501,255.324905 
	C41.478676,263.023193 48.448891,270.054749 55.448982,277.056458 
	C85.453293,307.067627 115.433701,337.102905 145.526505,367.025146 
	C148.559052,370.040527 150.047882,373.065857 150.022461,377.464661 
	C149.847351,407.767426 149.930359,438.071716 149.930359,469.150024 
	C115.291634,469.150024 80.899796,469.150024 46.010277,469.149536 
z"/>
<path fill="#010101" opacity="0.000000" stroke="none" 
	d="
M184.809753,312.190216 
	C143.885635,271.224640 103.216980,230.502975 62.642979,189.687225 
	C61.300018,188.336258 60.205612,186.035172 60.193935,184.169464 
	C60.022854,156.842010 60.054470,129.513275 60.049038,102.184853 
	C60.048916,101.557396 60.179134,100.929909 60.127163,101.399681 
	C173.623901,214.765747 287.510254,328.520966 401.227875,442.107635 
	C400.643280,442.144440 399.076843,442.326843 397.510101,442.329163 
	C372.014069,442.366974 346.517334,442.293854 321.022583,442.487823 
	C316.717377,442.520569 313.546448,441.344299 310.502167,438.275146 
	C281.330719,408.865601 252.041916,379.572510 222.789108,350.243683 
	C210.216537,337.638458 197.649536,325.027649 184.809753,312.190216 
z"/>
</svg>